<svg width="1001" height="150" viewBox="0 0 1001 150" fill="none" xmlns="http://www.w3.org/2000/svg">
<path d="M896.627 109.125C896.627 106.592 897.411 104.537 898.978 102.961C900.546 101.328 902.491 100.512 904.813 100.512C906.671 100.512 908.383 100.99 909.951 101.947C911.518 102.848 913.26 104.453 915.176 106.761C918.427 110.927 922.288 114.052 926.758 116.135C931.228 118.218 936.337 119.259 942.085 119.259C947.136 119.259 951.432 118.584 954.973 117.232C958.515 115.881 961.243 113.967 963.159 111.49C965.075 109.013 966.033 106.029 966.033 102.539C966.033 98.2599 964.495 94.7131 961.418 91.8981C958.399 89.0832 953.609 86.8876 947.049 85.3112L928.238 80.5822C918.311 78.2176 910.851 74.4456 905.858 69.2662C900.923 64.0304 898.456 57.4154 898.456 49.421C898.456 42.5526 900.226 36.5568 903.768 31.4337C907.309 26.3105 912.244 22.3415 918.572 19.5266C924.9 16.7117 932.331 15.3042 940.866 15.3042C947.542 15.3042 953.754 16.205 959.502 18.0065C965.249 19.8081 970.039 22.3978 973.871 25.7757C976.657 28.2528 978.805 30.8707 980.315 33.6293C981.824 36.3316 982.579 39.034 982.579 41.7363C982.579 44.1008 981.824 46.015 980.315 47.4787C978.805 48.9425 976.831 49.6744 974.393 49.6744C970.852 49.6744 968.007 48.0417 965.859 44.7764C963.537 40.554 960.227 37.2606 955.931 34.896C951.693 32.5315 946.787 31.3492 941.214 31.3492C934.363 31.3492 928.877 32.8693 924.755 35.9094C920.691 38.8932 918.659 42.9186 918.659 47.9854C918.659 51.87 920.053 55.1916 922.839 57.9502C925.684 60.6525 929.864 62.6793 935.379 64.0304L954.102 68.5906C961.301 70.3359 967.223 72.6441 971.868 75.5153C976.57 78.3302 980.025 81.7926 982.231 85.9024C984.495 90.0121 985.627 94.8538 985.627 100.427C985.627 107.521 983.798 113.686 980.141 118.921C976.541 124.157 971.403 128.211 964.727 131.082C958.05 133.897 950.155 135.304 941.04 135.304C933.609 135.304 926.787 134.375 920.575 132.517C914.363 130.603 909.341 127.929 905.51 124.495C902.607 121.905 900.401 119.315 898.891 116.726C897.382 114.08 896.627 111.546 896.627 109.125Z" fill="white"/>
<path d="M771.52 135.304C765.591 135.304 762.627 131.815 762.627 124.836V27.9358H782.419V52.2472H780.501V124.836C780.501 128.239 779.716 130.834 778.147 132.622C776.636 134.41 774.427 135.304 771.52 135.304ZM819.214 125.441C816.715 125.441 814.593 124.72 812.849 123.278C811.105 121.779 809.42 119.125 807.792 115.319L771.085 27.9358H762.627C762.627 23.956 763.615 20.8702 765.591 18.6784C767.626 16.4289 770.416 15.3042 773.962 15.3042C777.101 15.3042 779.629 16.1694 781.547 17.8997C783.524 19.5724 785.442 22.7447 787.302 27.4167L818.865 103.206H819.563L851.039 27.3302C852.899 22.6582 854.788 19.4859 856.706 17.8132C858.625 16.1405 861.211 15.3042 864.466 15.3042C868.012 15.3042 870.744 16.4001 872.662 18.5919C874.639 20.7837 875.627 23.8983 875.627 27.9358H867.257L830.462 115.319C828.951 119.183 827.294 121.836 825.492 123.278C823.748 124.72 821.656 125.441 819.214 125.441ZM866.559 135.304C860.746 135.304 857.84 131.815 857.84 124.836V52.2472H855.922V27.9358H875.627V124.836C875.627 128.239 874.842 130.834 873.273 132.622C871.761 134.41 869.524 135.304 866.559 135.304Z" fill="white"/>
<path d="M646.627 83.2845V66.8172C646.627 50.6033 650.836 37.9643 659.253 28.9003C667.671 19.8362 679.514 15.3042 694.781 15.3042C702.154 15.3042 708.83 16.402 714.81 18.5977C720.847 20.737 725.956 23.8616 730.135 27.9713C733.038 30.7863 735.331 33.8545 737.015 37.1761C738.756 40.4414 739.627 43.3408 739.627 45.8742C739.627 48.3513 738.843 50.3218 737.276 51.7855C735.766 53.2493 733.764 53.9812 731.267 53.9812C729.41 53.9812 727.755 53.5589 726.304 52.7145C724.853 51.87 723.343 50.3218 721.776 48.0699C719.512 44.3542 717.074 41.3422 714.461 39.034C711.849 36.6694 709.004 34.9242 705.928 33.7982C702.909 32.616 699.513 32.0248 695.739 32.0248C686.335 32.0248 679.078 35.0931 673.97 41.2296C668.861 47.3661 666.307 56.0924 666.307 67.4084V82.7778C666.307 94.319 668.832 103.186 673.883 109.379C678.991 115.515 686.277 118.584 695.739 118.584C699.513 118.584 702.996 118.021 706.189 116.895C709.382 115.769 712.284 114.052 714.897 111.743C717.567 109.379 719.976 106.423 722.124 102.876C723.692 100.624 725.143 99.0762 726.478 98.2317C727.813 97.3309 729.381 96.8806 731.18 96.8806C733.793 96.8806 735.854 97.6406 737.363 99.1606C738.872 100.624 739.627 102.567 739.627 104.988C739.627 107.802 738.669 110.927 736.753 114.361C734.838 117.795 732.254 120.948 729.003 123.819C724.824 127.535 719.86 130.378 714.113 132.349C708.424 134.319 701.98 135.304 694.781 135.304C679.398 135.304 667.526 130.772 659.166 121.708C650.807 112.588 646.627 99.7799 646.627 83.2845Z" fill="white"/>
<path d="M592.78 109.744V58.002H587.187C584.564 58.002 582.467 57.3027 580.894 55.9043C579.379 54.5059 578.621 52.6121 578.621 50.2231C578.621 47.7759 579.379 45.8822 580.894 44.542C582.409 43.1436 584.506 42.4443 587.187 42.4443H593.13V28.897C593.13 25.5757 593.946 23.0119 595.577 21.2056C597.209 19.341 599.539 18.4087 602.569 18.4087C608.921 18.4087 612.096 21.9048 612.096 28.897V42.4443H622.672C625.41 42.4443 627.508 43.1436 628.965 44.542C630.48 45.8822 631.237 47.7759 631.237 50.2231C631.237 52.6121 630.48 54.5059 628.965 55.9043C627.508 57.3027 625.41 58.002 622.672 58.002H612.184V108.346C612.184 112.891 612.883 116.008 614.281 117.698C615.738 119.388 618.389 120.232 622.235 120.232C623.458 120.232 624.507 120.203 625.381 120.145C626.314 120.028 627.275 119.97 628.266 119.97C630.13 119.97 631.645 120.553 632.811 121.718C633.976 122.825 634.559 124.34 634.559 126.263C634.559 127.72 634.209 129.06 633.51 130.284C632.811 131.507 631.733 132.556 630.276 133.43C628.819 134.246 627.042 134.858 624.944 135.266C622.847 135.732 620.37 135.965 617.515 135.965C608.775 135.965 602.453 133.984 598.549 130.021C594.703 126.001 592.78 119.242 592.78 109.744Z" fill="white"/>
<path d="M563.063 124.515C563.063 131.624 559.829 135.178 553.361 135.178C546.835 135.178 543.572 131.595 543.572 124.428V77.3179C543.572 70.7918 541.999 65.8099 538.853 62.3721C535.706 58.876 531.19 57.1279 525.305 57.1279C520.877 57.1279 517.031 58.1476 513.768 60.187C510.505 62.2264 507.97 65.1689 506.164 69.0146C504.416 72.8604 503.542 77.4635 503.542 82.8242V124.428C503.542 131.595 500.308 135.178 493.84 135.178C490.752 135.178 488.363 134.246 486.673 132.381C484.984 130.517 484.139 127.866 484.139 124.428V51.6216C484.139 48.3586 484.984 45.7948 486.673 43.9302C488.421 42.0656 490.781 41.1333 493.753 41.1333C499.871 41.1333 503.018 44.4546 503.192 51.0972V58.5264H504.154C505.436 54.7389 507.359 51.505 509.922 48.8247C512.544 46.1444 515.72 44.105 519.449 42.7065C523.178 41.2498 527.345 40.5215 531.948 40.5215C541.795 40.5215 549.428 43.2601 554.847 48.7373C560.324 54.2145 563.063 61.9351 563.063 71.8989V124.515Z" fill="white"/>
<path d="M384.5 94.7983V81.688C384.5 73.4139 386.19 66.1886 389.569 60.0122C392.949 53.7775 397.669 48.9121 403.729 45.416C409.788 41.9199 416.781 40.1719 424.705 40.1719C432.338 40.1719 439.068 41.8617 444.895 45.2412C450.78 48.5625 455.383 53.1657 458.705 59.0508C462.026 64.9359 463.687 71.695 463.687 79.3281C463.687 84.3975 462.958 87.8936 461.501 89.8164C460.103 91.7393 457.452 92.7007 453.548 92.7007H404.253V97.0708C404.253 104.18 406.321 109.861 410.458 114.114C414.654 118.31 420.422 120.407 427.764 120.407C429.629 120.407 431.377 120.291 433.008 120.058C434.64 119.766 436.155 119.388 437.553 118.921C439.01 118.397 440.35 117.756 441.574 116.999C442.856 116.241 444.05 115.338 445.157 114.289C447.488 112.366 449.178 111.084 450.227 110.443C451.334 109.802 452.645 109.482 454.16 109.482C456.257 109.482 457.947 110.181 459.229 111.58C460.569 112.92 461.239 114.726 461.239 116.999C461.239 118.688 460.744 120.407 459.753 122.155C458.763 123.903 457.364 125.506 455.558 126.962C452.586 129.818 448.537 132.061 443.409 133.692C438.34 135.266 432.746 136.052 426.628 136.052C413.634 136.052 403.35 132.381 395.775 125.04C388.258 117.698 384.5 107.617 384.5 94.7983ZM404.253 79.1533H444.895V78.8911C444.895 71.8407 443.089 66.2178 439.476 62.0225C435.863 57.8271 431.027 55.7295 424.967 55.7295C418.733 55.7295 413.722 57.8563 409.934 62.1099C406.147 66.3634 404.253 71.9572 404.253 78.8911V79.1533Z" fill="white"/>
<path d="M343.509 118.921C342.577 121.602 340.975 124.224 338.702 126.788C336.43 129.351 333.4 131.478 329.612 133.168C325.825 134.799 321.134 135.615 315.541 135.615C309.655 135.615 304.411 134.566 299.808 132.469C295.263 130.371 291.651 127.108 288.97 122.68C286.348 118.193 285.037 112.395 285.037 105.287V51.5342C285.037 47.9798 285.911 45.3577 287.659 43.668C289.465 41.9199 291.825 41.0459 294.739 41.0459C297.652 41.0459 299.983 41.9199 301.731 43.668C303.537 45.3577 304.44 47.9798 304.44 51.5342V100.392C304.44 104.995 305.256 108.695 306.888 111.492C308.519 114.231 310.675 116.212 313.355 117.436C316.094 118.601 319.095 119.184 322.358 119.184C326.786 119.184 330.632 118.31 333.895 116.562C337.158 114.755 339.693 112.337 341.499 109.307C343.305 106.219 344.208 102.81 344.208 99.0811V51.5342C344.208 47.9798 345.083 45.3577 346.831 43.668C348.637 41.9199 351.026 41.0459 353.998 41.0459C356.853 41.0459 359.183 41.9199 360.99 43.668C362.796 45.3577 363.699 47.9798 363.699 51.5342V124.865C363.699 128.303 362.796 130.896 360.99 132.644C359.183 134.333 356.882 135.178 354.085 135.178C351.346 135.178 349.074 134.392 347.268 132.818C345.52 131.187 344.616 128.71 344.558 125.389V118.921H343.509Z" fill="white"/>
<path d="M251.041 135.304C248.189 135.304 245.906 134.479 244.195 132.828C242.483 131.123 241.627 128.564 241.627 125.153V25.4555C241.627 22.0442 242.483 19.5133 244.195 17.8627C245.906 16.157 248.189 15.3042 251.041 15.3042C253.951 15.3042 256.262 16.157 257.974 17.8627C259.743 19.5133 260.627 22.0442 260.627 25.4555V125.153C260.627 128.564 259.743 131.123 257.974 132.828C256.262 134.479 253.951 135.304 251.041 135.304Z" fill="white"/>
<path d="M160.051 135.178C156.905 135.178 154.428 134.217 152.622 132.294C150.874 130.371 150 127.72 150 124.34V29.1592C150 24.2646 151.224 20.6812 153.671 18.4087C156.118 16.1362 159.906 15 165.033 15H215.814C218.553 15 220.738 15.7866 222.369 17.3599C224.059 18.8748 224.904 20.9142 224.904 23.478C224.904 26.0418 224.059 28.0812 222.369 29.5962C220.738 31.0529 218.553 31.7812 215.814 31.7812H169.84V68.4028H211.356C214.095 68.4028 216.28 69.1603 217.912 70.6753C219.543 72.1903 220.359 74.2005 220.359 76.7061C220.359 79.2699 219.543 81.3092 217.912 82.8242C216.28 84.2809 214.095 85.0093 211.356 85.0093H169.84V124.34C169.84 127.72 168.966 130.371 167.218 132.294C165.528 134.217 163.139 135.178 160.051 135.178Z" fill="white"/>
<rect x="15.1777" y="15" width="120" height="24" rx="12" fill="white"/>
<path d="M45 87C45 80.3726 50.3726 75 57 75H87C93.6274 75 99 80.3726 99 87V87C99 93.6274 93.6274 99 87 99H57C50.3726 99 45 93.6274 45 87V87Z" fill="white"/>
<rect x="45" y="105" width="84" height="24" rx="12" fill="white" fill-opacity="0.2"/>
<rect x="45" y="45" width="84" height="24" rx="12" fill="white" fill-opacity="0.2"/>
<rect x="39.1777" y="45" width="90" height="24" rx="12" transform="rotate(90 39.1777 45)" fill="white"/>
<path d="M105 87C105 80.3726 110.373 75 117 75V75C123.627 75 129 80.3726 129 87V87C129 93.6274 123.627 99 117 99V99C110.373 99 105 93.6274 105 87V87Z" fill="white" fill-opacity="0.2"/>
</svg>
