<svg width="462" height="150" viewBox="0 0 462 150" fill="none" xmlns="http://www.w3.org/2000/svg">
<path d="M61.3794 68.5557L38.1944 81.941H38.1897L15 95.331V122.111L38.1897 135.501H38.1944V108.721L61.3794 95.331H61.3841L84.5692 81.941L61.3794 68.5557Z" fill="white"/>
<path d="M107.778 68.5557V95.331V95.3357L84.5881 108.726L61.3984 122.111V122.116L84.5881 135.501L107.778 122.116H107.783L130.968 108.726V81.9457L107.778 68.5557Z" fill="white"/>
<path d="M61.3794 41.7753H61.3841L84.5692 55.1653L107.764 68.5553V41.7753L84.5692 28.39V28.3853L61.3841 15H61.3794L38.1944 28.3853V28.39L15 41.7753V68.5553L38.1944 55.1653L61.3794 41.7753Z" fill="white"/>
<path d="M142.858 58.1025V71.866L150.459 64.4661H169.718V58.1025H142.858Z" fill="white"/>
<path d="M142.858 83.4955V100.018H150.459V82.2116H167.878V75.8481H150.482L142.858 83.4955Z" fill="white"/>
<path d="M176.287 58.1025V100.023H183.696V58.1025H176.287Z" fill="white"/>
<path d="M211.354 68.5791V86.7919C211.354 88.3886 211.022 89.7192 210.364 90.7744C209.701 91.8342 208.861 92.6279 207.838 93.1601C206.816 93.6923 205.756 93.9585 204.663 93.9585C202.889 93.9585 201.451 93.3702 200.363 92.1983C199.271 91.0265 198.725 89.4391 198.725 87.4502V68.5791H191.315V88.5987C191.315 91.1059 191.759 93.2488 192.646 95.0136C193.533 96.7831 194.766 98.1276 196.344 99.0474C197.917 99.9671 199.738 100.429 201.797 100.429C204.159 100.429 206.148 99.8691 207.763 98.7533C209.379 97.6328 210.546 96.1948 211.256 94.43H211.582V100.018H218.768V68.5791H211.354Z" fill="white"/>
<path d="M254.279 84.0506C254.279 81.2913 253.896 78.9196 253.13 76.9214C252.369 74.9232 251.319 73.2704 249.988 71.9772C248.658 70.6793 247.126 69.7222 245.399 69.0966C243.676 68.4756 241.841 68.1675 239.904 68.1675C236.902 68.1675 234.287 68.8538 232.065 70.2217C229.843 71.5943 228.11 73.5085 226.878 75.955C225.645 78.4014 225.024 81.2447 225.024 84.4801C225.024 87.7716 225.641 90.6242 226.869 93.0519C228.096 95.4704 229.857 97.3425 232.14 98.6591C234.423 99.9757 237.144 100.634 240.296 100.634C242.733 100.634 244.909 100.26 246.804 99.5182C248.695 98.7758 250.259 97.7254 251.482 96.3621C252.701 95.0081 253.527 93.4114 253.966 91.5813L247.047 90.8063C246.72 91.6933 246.235 92.4357 245.595 93.0379C244.955 93.6355 244.199 94.0884 243.326 94.3966C242.453 94.7047 241.477 94.8541 240.394 94.8541C238.788 94.8541 237.378 94.5133 236.178 93.8223C234.978 93.136 234.044 92.1415 233.372 90.8343C232.728 89.5784 232.392 88.0704 232.373 86.3196H254.274V84.0506H254.279ZM232.387 81.3334C232.462 80.1008 232.779 78.9616 233.344 77.9018C233.979 76.7206 234.871 75.7682 236.015 75.0352C237.159 74.3022 238.489 73.9381 240.006 73.9381C241.426 73.9381 242.668 74.2602 243.746 74.8998C244.815 75.5394 245.651 76.4172 246.249 77.5283C246.851 78.6395 247.154 79.9047 247.168 81.3287H232.387V81.3334Z" fill="white"/>
<path d="M286.814 73.5926C285.917 71.8325 284.666 70.4832 283.046 69.5588C281.431 68.6297 279.531 68.1675 277.364 68.1675C275.021 68.1675 273.046 68.6857 271.458 69.7222C269.871 70.7586 268.708 72.1546 267.989 73.9194H267.621V68.5783H260.538V100.018H267.947V81.5995C267.947 80.0868 268.228 78.7936 268.797 77.7291C269.362 76.6646 270.146 75.8476 271.145 75.2827C272.149 74.7177 273.298 74.4329 274.6 74.4329C276.505 74.4329 278.009 75.0305 279.092 76.2164C280.175 77.4023 280.716 79.0503 280.716 81.1466V100.018H288.126V79.9981C288.149 77.491 287.71 75.3574 286.814 73.5926Z" fill="white"/>
<path d="M310.714 93.9206C310.509 93.9766 310.215 94.0373 309.827 94.1027C309.435 94.1727 309.01 94.2054 308.548 94.2054C307.932 94.2054 307.376 94.112 306.872 93.9206C306.368 93.7291 305.961 93.3697 305.653 92.8468C305.345 92.3239 305.191 91.5628 305.191 90.5637V61.0479H297.786V91.7963C297.772 93.7618 298.197 95.4006 299.061 96.7125C299.929 98.0197 301.106 98.9862 302.595 99.6118C304.08 100.228 305.756 100.513 307.609 100.457C308.66 100.433 309.552 100.335 310.28 100.172C311.008 100.009 311.573 99.8592 311.965 99.7238L310.714 93.9206ZM293.318 68.5786V74.3071H311.391V68.5786H293.318Z" fill="white"/>
<path d="M343.826 87.9959C343.368 88.7943 342.789 89.4666 342.089 90.0175C341.384 90.5731 340.572 90.9886 339.652 91.2781C338.732 91.5629 337.714 91.7076 336.589 91.7076C334.6 91.7076 332.873 91.2314 331.421 90.2836C329.969 89.3359 328.844 87.9259 328.041 86.0491C327.242 84.1722 326.846 81.8378 326.846 79.0553C326.846 76.3847 327.238 74.1017 328.022 72.2202C328.807 70.3387 329.932 68.896 331.402 67.9016C332.868 66.9072 334.619 66.4076 336.65 66.4076C337.799 66.4076 338.844 66.571 339.797 66.8885C340.745 67.2106 341.566 67.6682 342.262 68.2704C342.958 68.868 343.513 69.5917 343.938 70.4367C344.358 71.2818 344.638 72.2295 344.778 73.2847H355.012C354.765 70.7775 354.135 68.5412 353.112 66.5944C352.085 64.6428 350.759 62.9901 349.116 61.6501C347.482 60.3055 345.581 59.2831 343.424 58.5781C341.272 57.8731 338.924 57.5229 336.384 57.5229C332.658 57.5229 329.297 58.354 326.295 60.0161C323.288 61.6828 320.912 64.1199 319.152 67.3227C317.391 70.5348 316.514 74.4379 316.514 79.0506C316.514 83.654 317.377 87.557 319.11 90.7598C320.842 93.9719 323.209 96.409 326.201 98.0758C329.199 99.7472 332.593 100.583 336.384 100.583C339.269 100.583 341.823 100.149 344.05 99.2757C346.282 98.4026 348.177 97.2261 349.732 95.7414C351.287 94.2614 352.514 92.618 353.406 90.8159C354.298 89.0184 354.835 87.1882 355.012 85.3301L344.778 85.2694C344.601 86.2918 344.283 87.1976 343.826 87.9959Z" fill="white"/>
<path d="M395.112 58.1025L384.467 84.0562H383.972L373.332 58.1025H360.782V100.023H370.652V74.1304H370.997L381.068 99.7572H387.375L397.446 74.2705H397.796V100.023H407.661V58.1025H395.112Z" fill="white"/>
<path d="M446.081 83.318C445.521 81.9687 444.699 80.7735 443.616 79.7324C442.533 78.6959 441.193 77.8042 439.601 77.0525C438.013 76.3055 436.178 75.7032 434.106 75.255L430.501 74.4333C429.544 74.2326 428.685 73.9945 427.924 73.719C427.158 73.4482 426.509 73.1308 425.973 72.7666C425.431 72.4071 425.025 71.9869 424.745 71.5107C424.465 71.0345 424.338 70.4836 424.366 69.8533C424.38 69.0923 424.605 68.4107 425.039 67.8177C425.478 67.2248 426.131 66.7579 427.004 66.4171C427.877 66.0763 428.965 65.9082 430.282 65.9082C432.257 65.9082 433.788 66.3237 434.857 67.1641C435.926 68.0045 436.529 69.1717 436.669 70.675H446.37C446.342 68.0745 445.67 65.7775 444.344 63.7979C443.023 61.823 441.16 60.2823 438.77 59.1852C436.375 58.088 433.55 57.5371 430.3 57.5371C427.121 57.5371 424.292 58.0834 421.803 59.1712C419.324 60.2637 417.373 61.7857 415.972 63.7372C414.567 65.6888 413.871 67.9624 413.885 70.5536C413.871 73.7377 414.908 76.2542 416.999 78.117C419.081 79.9752 421.943 81.3291 425.576 82.1601L429.96 83.1826C431.486 83.5374 432.747 83.9249 433.737 84.3404C434.726 84.7559 435.459 85.2462 435.936 85.8111C436.412 86.376 436.659 87.0576 436.673 87.8467C436.659 88.6917 436.393 89.4434 435.875 90.097C435.357 90.7506 434.614 91.2595 433.653 91.6284C432.696 91.9972 431.528 92.184 430.16 92.184C428.676 92.184 427.369 91.9505 426.243 91.4883C425.118 91.0214 424.236 90.3398 423.591 89.4434C422.952 88.5423 422.592 87.4171 422.508 86.0632H412.807C412.844 89.3407 413.591 92.0439 415.034 94.1868C416.481 96.3251 418.507 97.9265 421.112 98.977C423.718 100.027 426.776 100.55 430.286 100.55C433.779 100.55 436.762 100.046 439.241 99.0377C441.716 98.0292 443.62 96.5772 444.942 94.6771C446.268 92.7815 446.935 90.5079 446.949 87.8607C446.931 86.1846 446.641 84.6673 446.081 83.318Z" fill="white"/>
</svg>
