<svg width="260" height="260" viewBox="0 0 260 260" fill="none" xmlns="http://www.w3.org/2000/svg">
<path d="M109.632 118.954L69.8158 141.941H69.8111L30 164.929V164.933V210.908L69.8111 233.9H69.8158V187.921L109.632 164.933H109.636L149.447 141.941L109.632 118.954Z" fill="#154EF2"/>
<path d="M189.296 118.954V164.933V164.938L149.48 187.925H149.475L109.664 210.908V210.917L149.475 233.9H149.48L189.296 210.917H189.3L229.111 187.925V141.946L189.296 118.954Z" fill="#154EF2"/>
<path d="M109.632 72.9747H109.636L149.447 95.962L189.268 118.954V72.9747L149.447 49.992V49.9827L109.636 27H109.632L69.8158 49.9827V49.992L30 72.9747V118.954L69.8158 95.962L109.632 72.9747Z" fill="#154EF2"/>
</svg>
