<svg width="179" height="34" viewBox="0 0 179 34" fill="none" xmlns="http://www.w3.org/2000/svg">
    <g filter="url(#filter0_i_866_9693)">
        <path d="M37.9062 7.4873V13.7146L41.3221 10.3665H49.9772V7.4873H37.9062Z" fill="#154EF2" />
        <path d="M37.9062 18.9767V26.4524H41.3221V18.3958H49.1506V15.5166H41.3326L37.9062 18.9767Z"
            fill="#0E131E" />
        <path d="M52.9297 7.4873V26.4545H56.2595V7.4873H52.9297Z" fill="#0E131E" />
        <path
            d="M68.6891 12.2275V20.468C68.6891 21.1904 68.5401 21.7924 68.2443 22.2698C67.9463 22.7494 67.5687 23.1085 67.1092 23.3493C66.6497 23.5901 66.1734 23.7105 65.6824 23.7105C64.8851 23.7105 64.2388 23.4443 63.7499 22.9141C63.2589 22.3839 63.0135 21.6657 63.0135 20.7658V12.2275H59.6836V21.2855C59.6836 22.4198 59.8829 23.3894 60.2816 24.1879C60.6802 24.9885 61.2342 25.5968 61.9434 26.013C62.6505 26.4291 63.4688 26.6383 64.3941 26.6383C65.4558 26.6383 66.3496 26.3848 67.0756 25.8799C67.8016 25.3729 68.3261 24.7223 68.6451 23.9238H68.7919V26.4524H72.0211V12.2275H68.6891Z"
            fill="#0E131E" />
        <path
            d="M87.9794 19.2274C87.9794 17.9789 87.8074 16.9058 87.4633 16.0017C87.1212 15.0976 86.6491 14.3499 86.0512 13.7647C85.4532 13.1775 84.765 12.7444 83.9886 12.4614C83.2144 12.1804 82.3898 12.041 81.519 12.041C80.1699 12.041 78.9949 12.3515 77.9961 12.9705C76.9974 13.5915 76.2189 14.4576 75.665 15.5645C75.1111 16.6714 74.832 17.9578 74.832 19.4217C74.832 20.9109 75.109 22.2016 75.6608 23.3001C76.2127 24.3943 77.0037 25.2413 78.0297 25.837C79.0557 26.4327 80.279 26.7306 81.6953 26.7306C82.7905 26.7306 83.7683 26.5616 84.6202 26.2257C85.4699 25.8898 86.1729 25.4145 86.7226 24.7977C87.2702 24.1851 87.6416 23.4627 87.8388 22.6346L84.7293 22.284C84.5824 22.6853 84.3642 23.0212 84.0767 23.2937C83.7893 23.5641 83.4494 23.769 83.057 23.9084C82.6647 24.0478 82.2261 24.1154 81.7393 24.1154C81.0176 24.1154 80.3839 23.9612 79.8447 23.6486C79.3054 23.3381 78.8858 22.8881 78.5836 22.2967C78.2941 21.7284 78.143 21.0461 78.1346 20.254H87.9773V19.2274H87.9794ZM78.1409 17.998C78.1745 17.4403 78.3172 16.9249 78.571 16.4453C78.8564 15.9109 79.2572 15.48 79.7712 15.1483C80.2853 14.8167 80.8833 14.6519 81.5652 14.6519C82.203 14.6519 82.7612 14.7977 83.2458 15.0871C83.7263 15.3765 84.1019 15.7736 84.3705 16.2764C84.6412 16.7791 84.7775 17.3516 84.7838 17.9958H78.1409V17.998Z"
            fill="#0E131E" />
        <path
            d="M102.602 14.4956C102.199 13.6992 101.637 13.0888 100.908 12.6705C100.182 12.2501 99.3285 12.041 98.3549 12.041C97.3016 12.041 96.4141 12.2755 95.7007 12.7444C94.9873 13.2134 94.4648 13.845 94.1417 14.6435H93.9759V12.2269H90.793V26.4517H94.1228V18.1184C94.1228 17.4339 94.2487 16.8488 94.5047 16.3672C94.7586 15.8856 95.1111 15.5159 95.5601 15.2603C96.0112 15.0047 96.5274 14.8758 97.1128 14.8758C97.9688 14.8758 98.6445 15.1462 99.1313 15.6828C99.618 16.2193 99.8614 16.965 99.8614 17.9135V26.4517H103.191V17.3938C103.202 16.2595 103.005 15.2941 102.602 14.4956Z"
            fill="#0E131E" />
        <path
            d="M113.343 23.6937C113.251 23.719 113.119 23.7465 112.945 23.776C112.768 23.8077 112.577 23.8225 112.37 23.8225C112.093 23.8225 111.843 23.7803 111.616 23.6937C111.39 23.607 111.207 23.4444 111.069 23.2078C110.93 22.9712 110.861 22.6269 110.861 22.1748V8.82031H107.533V22.7325C107.527 23.6218 107.718 24.3633 108.106 24.9569C108.496 25.5483 109.025 25.9856 109.695 26.2687C110.362 26.5475 111.115 26.6763 111.948 26.651C112.42 26.6404 112.821 26.5961 113.148 26.5221C113.476 26.4482 113.729 26.3806 113.906 26.3194L113.343 23.6937ZM105.525 12.2276V14.8195H113.648V12.2276H105.525Z"
            fill="#0E131E" />
        <path
            d="M128.224 21.0127C128.018 21.3739 127.758 21.6781 127.443 21.9273C127.126 22.1787 126.761 22.3667 126.348 22.4977C125.935 22.6265 125.477 22.692 124.972 22.692C124.078 22.692 123.301 22.4766 122.649 22.0477C121.996 21.6189 121.491 20.981 121.13 20.1318C120.771 19.2826 120.593 18.2264 120.593 16.9674C120.593 15.7592 120.769 14.7262 121.121 13.8749C121.474 13.0236 121.979 12.3709 122.64 11.9209C123.299 11.471 124.086 11.245 124.999 11.245C125.515 11.245 125.985 11.3189 126.413 11.4626C126.839 11.6083 127.208 11.8153 127.521 12.0878C127.833 12.3582 128.083 12.6856 128.274 13.068C128.463 13.4503 128.589 13.8791 128.652 14.3565H133.251C133.14 13.2222 132.857 12.2103 132.397 11.3295C131.935 10.4465 131.34 9.69871 130.601 9.09245C129.867 8.48408 129.013 8.02147 128.043 7.7025C127.076 7.38353 126.021 7.2251 124.879 7.2251C123.205 7.2251 121.694 7.6011 120.345 8.35311C118.994 9.10724 117.926 10.2099 117.135 11.659C116.344 13.1123 115.949 14.8783 115.949 16.9653C115.949 19.0481 116.337 20.8141 117.116 22.2632C117.894 23.7165 118.958 24.8192 120.303 25.5733C121.65 26.3296 123.175 26.7077 124.879 26.7077C126.176 26.7077 127.324 26.5112 128.324 26.1162C129.327 25.7212 130.179 25.1889 130.878 24.5171C131.577 23.8475 132.129 23.1039 132.529 22.2886C132.93 21.4753 133.171 20.6472 133.251 19.8065L128.652 19.779C128.572 20.2417 128.429 20.6514 128.224 21.0127Z"
            fill="#154EF2" />
        <path
            d="M151.272 7.4873L146.488 19.2301H146.266L141.484 7.4873H135.844V26.4545H140.279V14.7391H140.435L144.96 26.3341H147.795L152.321 14.8025H152.478V26.4545H156.912V7.4873H151.272Z"
            fill="#154EF2" />
        <path
            d="M174.179 18.8961C173.927 18.2856 173.557 17.7448 173.071 17.2737C172.584 16.8048 171.982 16.4013 171.266 16.0612C170.553 15.7233 169.728 15.4508 168.797 15.248L167.177 14.8762C166.747 14.7854 166.361 14.6776 166.019 14.553C165.675 14.4305 165.383 14.2868 165.142 14.1221C164.898 13.9594 164.716 13.7693 164.59 13.5538C164.464 13.3384 164.407 13.0891 164.42 12.8039C164.426 12.4596 164.527 12.1512 164.722 11.8829C164.919 11.6147 165.213 11.4034 165.605 11.2492C165.998 11.095 166.487 11.019 167.078 11.019C167.966 11.019 168.654 11.207 169.134 11.5872C169.615 11.9674 169.886 12.4955 169.949 13.1757H174.309C174.296 11.9991 173.994 10.9598 173.398 10.0642C172.804 9.17061 171.967 8.47353 170.893 7.97712C169.816 7.48071 168.547 7.23145 167.087 7.23145C165.658 7.23145 164.386 7.47859 163.268 7.97078C162.154 8.46508 161.277 9.15373 160.647 10.0367C160.016 10.9197 159.703 11.9484 159.709 13.1208C159.703 14.5614 160.169 15.7 161.109 16.5429C162.045 17.3836 163.331 17.9962 164.963 18.3722L166.933 18.8348C167.62 18.9953 168.186 19.1707 168.631 19.3587C169.076 19.5467 169.405 19.7685 169.619 20.0241C169.833 20.2797 169.944 20.5881 169.951 20.9451C169.944 21.3274 169.825 21.6675 169.592 21.9633C169.359 22.259 169.025 22.4892 168.593 22.6561C168.163 22.823 167.638 22.9075 167.024 22.9075C166.356 22.9075 165.769 22.8019 165.263 22.5928C164.758 22.3815 164.361 22.0731 164.071 21.6675C163.784 21.2598 163.622 20.7507 163.585 20.1381H159.225C159.241 21.621 159.577 22.8441 160.225 23.8137C160.876 24.7812 161.787 25.5057 162.957 25.981C164.128 26.4563 165.502 26.6929 167.08 26.6929C168.65 26.6929 169.991 26.4648 171.105 26.0085C172.217 25.5522 173.073 24.8953 173.667 24.0355C174.262 23.1779 174.563 22.1491 174.569 20.9514C174.56 20.1931 174.43 19.5066 174.179 18.8961Z"
            fill="#154EF2" />
    </g>
    <g filter="url(#filter1_i_866_9693)">
        <path
            d="M15.2337 15.4507L10.3551 18.2795H10.3541L5.47461 21.1093V26.7689L10.3541 29.5987H10.3551V23.9391L15.2337 21.1093H15.2347L20.1132 18.2795L15.2337 15.4507Z"
            fill="#154EF2" />
        <path
            d="M24.6028 15.4507V21.1093V21.1103L19.7233 23.9401L14.8438 26.7689V26.7699L19.7233 29.5987L24.6028 26.7699H24.6038L29.4824 23.9401V18.2805L24.6028 15.4507Z"
            fill="#154EF2" />
        <path
            d="M15.1356 9.84978H15.1366L19.9661 12.6502L24.7976 15.4505V9.84978L19.9661 7.05038V7.0494L15.1366 4.25H15.1356L10.3061 7.0494V7.05038L5.47461 9.84978V15.4505L10.3061 12.6502L15.1356 9.84978Z"
            fill="#154EF2" />
    </g>
    <defs>
        <filter id="filter0_i_866_9693" x="37.9062" y="7.2251" width="136.662" height="23.5054"
            filterUnits="userSpaceOnUse" color-interpolation-filters="sRGB">
            <feFlood flood-opacity="0" result="BackgroundImageFix" />
            <feBlend mode="normal" in="SourceGraphic" in2="BackgroundImageFix" result="shape" />
            <feColorMatrix in="SourceAlpha" type="matrix"
                values="0 0 0 0 0 0 0 0 0 0 0 0 0 0 0 0 0 0 127 0" result="hardAlpha" />
            <feOffset dy="4" />
            <feGaussianBlur stdDeviation="2" />
            <feComposite in2="hardAlpha" operator="arithmetic" k2="-1" k3="1" />
            <feColorMatrix type="matrix" values="0 0 0 0 0 0 0 0 0 0 0 0 0 0 0 0 0 0 0.25 0" />
            <feBlend mode="normal" in2="shape" result="effect1_innerShadow_866_9693" />
        </filter>
        <filter id="filter1_i_866_9693" x="5.47461" y="4.25" width="24.0078" height="29.3486"
            filterUnits="userSpaceOnUse" color-interpolation-filters="sRGB">
            <feFlood flood-opacity="0" result="BackgroundImageFix" />
            <feBlend mode="normal" in="SourceGraphic" in2="BackgroundImageFix" result="shape" />
            <feColorMatrix in="SourceAlpha" type="matrix"
                values="0 0 0 0 0 0 0 0 0 0 0 0 0 0 0 0 0 0 127 0" result="hardAlpha" />
            <feOffset dy="4" />
            <feGaussianBlur stdDeviation="2" />
            <feComposite in2="hardAlpha" operator="arithmetic" k2="-1" k3="1" />
            <feColorMatrix type="matrix" values="0 0 0 0 0 0 0 0 0 0 0 0 0 0 0 0 0 0 0.25 0" />
            <feBlend mode="normal" in2="shape" result="effect1_innerShadow_866_9693" />
        </filter>
    </defs>
</svg>
    