<svg width="992" height="715" viewBox="0 0 992 715" fill="none" xmlns="http://www.w3.org/2000/svg">
<g clip-path="url(#clip0_2881_4057)">
<rect width="992" height="715" fill="white"/>
<g opacity="0.8" filter="url(#filter0_dd_2881_4057)">
<rect width="992" height="36" fill="white"/>
<path d="M15.5 22.1667V13.8334M15.5 22.1667C15.5 22.6088 15.3244 23.0327 15.0118 23.3453C14.6993 23.6578 14.2754 23.8334 13.8333 23.8334H12.1667C11.7246 23.8334 11.3007 23.6578 10.9882 23.3453C10.6756 23.0327 10.5 22.6088 10.5 22.1667V13.8334C10.5 13.3914 10.6756 12.9675 10.9882 12.6549C11.3007 12.3423 11.7246 12.1667 12.1667 12.1667H13.8333C14.2754 12.1667 14.6993 12.3423 15.0118 12.6549C15.3244 12.9675 15.5 13.3914 15.5 13.8334M15.5 22.1667C15.5 22.6088 15.6756 23.0327 15.9882 23.3453C16.3007 23.6578 16.7246 23.8334 17.1667 23.8334H18.8333C19.2754 23.8334 19.6993 23.6578 20.0118 23.3453C20.3244 23.0327 20.5 22.6088 20.5 22.1667M15.5 13.8334C15.5 13.3914 15.6756 12.9675 15.9882 12.6549C16.3007 12.3423 16.7246 12.1667 17.1667 12.1667H18.8333C19.2754 12.1667 19.6993 12.3423 20.0118 12.6549C20.3244 12.9675 20.5 13.3914 20.5 13.8334M20.5 22.1667V13.8334M20.5 22.1667C20.5 22.6088 20.6756 23.0327 20.9882 23.3453C21.3007 23.6578 21.7246 23.8334 22.1667 23.8334H23.8333C24.2754 23.8334 24.6993 23.6578 25.0118 23.3453C25.3244 23.0327 25.5 22.6088 25.5 22.1667V13.8334C25.5 13.3914 25.3244 12.9675 25.0118 12.6549C24.6993 12.3423 24.2754 12.1667 23.8333 12.1667H22.1667C21.7246 12.1667 21.3007 12.3423 20.9882 12.6549C20.6756 12.9675 20.5 13.3914 20.5 13.8334" stroke="#9CA3AF" stroke-width="2" stroke-linecap="round" stroke-linejoin="round"/>
<path d="M235.398 9.7644H37.7452C36.2291 9.7644 35 10.9935 35 12.5096V23.4903C35 25.0064 36.2291 26.2355 37.7452 26.2355H235.398C236.914 26.2355 238.143 25.0064 238.143 23.4903V12.5096C238.143 10.9935 236.914 9.7644 235.398 9.7644Z" fill="#E4E4E7"/>
<path d="M934.9 19.1587L934.753 19.3051L934.329 19.7293C934.329 19.7293 934.329 19.7293 934.329 19.7293C934.315 19.7433 934.306 19.7611 934.302 19.7804C934.298 19.7998 934.3 19.8199 934.308 19.8382C934.315 19.8565 934.328 19.8721 934.344 19.8831C934.361 19.8941 934.38 19.8999 934.4 19.9L934.9 19.1587ZM934.9 19.1587V18.9516M934.9 19.1587V18.9516M934.9 18.9516V16.8C934.9 15.9778 935.227 15.1893 935.808 14.6079C936.389 14.0266 937.178 13.7 938 13.7C938.822 13.7 939.611 14.0266 940.192 14.6079C940.773 15.1893 941.1 15.9778 941.1 16.8V18.9516V19.1587M934.9 18.9516L941.1 19.1587M941.1 19.1587L941.246 19.3051M941.1 19.1587L941.246 19.3051M941.246 19.3051L941.671 19.7293C941.671 19.7293 941.671 19.7293 941.671 19.7293C941.685 19.7433 941.694 19.7611 941.698 19.7804C941.702 19.7998 941.7 19.8199 941.692 19.8382C941.685 19.8565 941.672 19.8721 941.655 19.8831C941.639 19.8941 941.62 19.8999 941.6 19.9L941.246 19.3051ZM941.6 19.9H934.4H941.6ZM938 22.3C937.655 22.3 937.324 22.163 937.081 21.9192C936.959 21.7979 936.865 21.6552 936.8 21.5H939.2C939.135 21.6552 939.04 21.7979 938.919 21.9192C938.675 22.163 938.345 22.3 938 22.3Z" fill="#6B7280" stroke="#6B7280"/>
<path d="M955 13.8C954.682 13.8 954.377 13.9265 954.152 14.1515C953.926 14.3766 953.8 14.6818 953.8 15V16.2C953.8 16.5183 953.926 16.8235 954.152 17.0486C954.377 17.2736 954.682 17.4 955 17.4H956.2C956.518 17.4 956.824 17.2736 957.049 17.0486C957.274 16.8235 957.4 16.5183 957.4 16.2V15C957.4 14.6818 957.274 14.3766 957.049 14.1515C956.824 13.9265 956.518 13.8 956.2 13.8H955ZM955 18.6C954.682 18.6 954.377 18.7265 954.152 18.9515C953.926 19.1766 953.8 19.4818 953.8 19.8V21C953.8 21.3183 953.926 21.6235 954.152 21.8486C954.377 22.0736 954.682 22.2 955 22.2H956.2C956.518 22.2 956.824 22.0736 957.049 21.8486C957.274 21.6235 957.4 21.3183 957.4 21V19.8C957.4 19.4818 957.274 19.1766 957.049 18.9515C956.824 18.7265 956.518 18.6 956.2 18.6H955ZM958.6 15C958.6 14.6818 958.726 14.3766 958.952 14.1515C959.177 13.9265 959.482 13.8 959.8 13.8H961C961.318 13.8 961.624 13.9265 961.849 14.1515C962.074 14.3766 962.2 14.6818 962.2 15V16.2C962.2 16.5183 962.074 16.8235 961.849 17.0486C961.624 17.2736 961.318 17.4 961 17.4H959.8C959.482 17.4 959.177 17.2736 958.952 17.0486C958.726 16.8235 958.6 16.5183 958.6 16.2V15ZM958.6 19.8C958.6 19.4818 958.726 19.1766 958.952 18.9515C959.177 18.7265 959.482 18.6 959.8 18.6H961C961.318 18.6 961.624 18.7265 961.849 18.9515C962.074 19.1766 962.2 19.4818 962.2 19.8V21C962.2 21.3183 962.074 21.6235 961.849 21.8486C961.624 22.0736 961.318 22.2 961 22.2H959.8C959.482 22.2 959.177 22.0736 958.952 21.8486C958.726 21.6235 958.6 21.3183 958.6 21V19.8Z" fill="#6B7280"/>
<path fill-rule="evenodd" clip-rule="evenodd" d="M982.8 18C982.8 19.273 982.294 20.4939 981.394 21.3941C980.494 22.2942 979.273 22.8 978 22.8C976.727 22.8 975.506 22.2942 974.606 21.3941C973.706 20.4939 973.2 19.273 973.2 18C973.2 16.7269 973.706 15.506 974.606 14.6058C975.506 13.7057 976.727 13.2 978 13.2C979.273 13.2 980.494 13.7057 981.394 14.6058C982.294 15.506 982.8 16.7269 982.8 18V18ZM979.2 16.2C979.2 16.5182 979.074 16.8234 978.848 17.0485C978.623 17.2735 978.318 17.4 978 17.4C977.682 17.4 977.376 17.2735 977.151 17.0485C976.926 16.8234 976.8 16.5182 976.8 16.2C976.8 15.8817 976.926 15.5765 977.151 15.3514C977.376 15.1264 977.682 15 978 15C978.318 15 978.623 15.1264 978.848 15.3514C979.074 15.5765 979.2 15.8817 979.2 16.2V16.2ZM978 18.6C977.426 18.5998 976.863 18.7646 976.38 19.0748C975.896 19.3849 975.512 19.8274 975.272 20.3496C975.61 20.7423 976.029 21.0574 976.499 21.2732C976.97 21.4891 977.482 21.6005 978 21.6C978.518 21.6005 979.03 21.4891 979.501 21.2732C979.971 21.0574 980.39 20.7423 980.728 20.3496C980.488 19.8274 980.104 19.3849 979.62 19.0748C979.137 18.7646 978.574 18.5998 978 18.6V18.6Z" fill="#6B7280"/>
</g>
<rect width="992" height="678" transform="translate(0 37)" fill="#F4F4F5"/>
<rect width="194" height="678" transform="translate(0 37)" fill="white"/>
<rect x="20" y="57" width="8" height="8" rx="4" fill="#D1D5DB"/>
<rect x="36" y="57" width="88" height="8" rx="2" fill="#D1D5DB"/>
<rect x="20" y="85" width="8" height="8" rx="4" fill="#D1D5DB"/>
<rect x="36" y="85" width="132" height="8" rx="2" fill="#D1D5DB"/>
<rect x="20" y="113" width="8" height="8" rx="4" fill="#D1D5DB"/>
<rect x="36" y="113" width="129" height="8" rx="2" fill="#D1D5DB"/>
<rect x="20" y="141" width="8" height="8" rx="4" fill="#D1D5DB"/>
<rect x="36" y="141" width="103" height="8" rx="2" fill="#D1D5DB"/>
<rect x="20" y="169" width="8" height="8" rx="4" fill="#D1D5DB"/>
<rect x="36" y="169" width="130" height="8" rx="2" fill="#D1D5DB"/>
<rect x="20" y="197" width="8" height="8" rx="4" fill="#D1D5DB"/>
<rect x="36" y="197" width="92" height="8" rx="2" fill="#D1D5DB"/>
<rect x="20" y="225" width="8" height="8" rx="4" fill="#D1D5DB"/>
<rect x="36" y="225" width="136" height="8" rx="2" fill="#D1D5DB"/>
<rect x="77.5" y="694" width="5" height="5" rx="2.5" fill="#D1D5DB"/>
<rect x="94.5" y="694" width="5" height="5" rx="2.5" fill="#D1D5DB"/>
<rect x="111.5" y="694" width="5" height="5" rx="2.5" fill="#D1D5DB"/>
<rect x="214" y="57" width="758" height="243.528" rx="4" fill="white"/>
<rect x="230" y="73" width="73" height="7" rx="2" fill="#9CA3AF"/>
<rect x="230" y="84" width="39" height="5" rx="2" fill="#D1D5DB"/>
<path d="M230.988 191.074C272.735 185.798 269.952 217.138 324.92 221.711C379.887 226.283 395.194 194.277 420.243 185.132C445.291 175.987 456.424 134.316 498.171 137.13C539.918 139.944 560.792 168.137 595.581 171.654C630.371 175.171 637.329 198.497 670.031 215.731C702.733 232.966 732.652 235.076 773.703 231.559C814.755 228.041 825.888 192.481 845.37 191.074C864.852 189.667 882.246 206.625 898.945 210.494C915.644 214.363 920.515 231.559 956 231.559" stroke="#D1D5DB" stroke-width="3" stroke-linecap="round" stroke-linejoin="round"/>
<path d="M230 240.994C261.932 238.105 288.191 220.486 326.292 217.524C346.599 215.946 362.868 219.018 381.019 223.792C399.17 228.565 395.617 230.626 436.439 234.306C470.126 237.343 478.938 204.601 511.948 205.859C544.959 207.117 560.226 167.751 595.078 171.037C629.93 174.324 636.893 165.827 669.654 181.929C702.415 198.031 732.682 160.499 773.807 157.213C814.932 153.927 825.643 188.805 845.16 187.49C864.677 186.176 882.25 211.029 898.978 214.644C915.707 218.258 920.451 205.127 956 205.127" stroke="#9CA3AF" stroke-width="3" stroke-linecap="round" stroke-linejoin="round"/>
<rect x="510" y="274.028" width="5" height="5" rx="2" fill="#D1D5DB"/>
<rect x="519" y="274.028" width="22" height="5" rx="2" fill="#D1D5DB"/>
<rect x="567" y="274.028" width="5" height="5" rx="2" fill="#D1D5DB"/>
<rect x="576" y="274.028" width="39" height="5" rx="2" fill="#D1D5DB"/>
<rect x="641" y="274.028" width="5" height="5" rx="2" fill="#D1D5DB"/>
<rect x="650" y="274.028" width="26" height="5" rx="2" fill="#D1D5DB"/>
<rect x="214" y="320.528" width="239.333" height="93" rx="4" fill="white"/>
<rect x="224" y="330.528" width="40" height="4" rx="1" fill="#9CA3AF"/>
<rect x="224" y="351.528" width="152" height="4" rx="1" fill="#E5E7EB"/>
<rect x="224" y="360.528" width="81" height="4" rx="1" fill="#E5E7EB"/>
<rect x="224" y="381.528" width="43" height="14" rx="2" fill="#1A56DB"/>
<rect x="231" y="387.028" width="29" height="3" rx="1" fill="white"/>
<rect x="274" y="381.528" width="43" height="14" rx="2" fill="#E5E7EB"/>
<rect x="281" y="387.028" width="29" height="3" rx="1" fill="white"/>
<rect x="473.333" y="320.528" width="239.333" height="93" rx="4" fill="white"/>
<rect x="483.333" y="330.528" width="40" height="4" rx="2" fill="#9CA3AF"/>
<rect x="633.333" y="331.528" width="14" height="2" rx="1" fill="#D1D5DB"/>
<rect x="483.333" y="351.528" width="30.5" height="4" rx="1" fill="#E5E7EB"/>
<rect x="527.833" y="351.528" width="30.5" height="4" rx="1" fill="#E5E7EB"/>
<rect x="572.333" y="351.528" width="30.5" height="4" rx="1" fill="#E5E7EB"/>
<rect x="616.833" y="351.528" width="30.5" height="4" rx="1" fill="#E5E7EB"/>
<rect x="483.333" y="363.528" width="30.5" height="4" rx="1" fill="#D1D5DB"/>
<rect x="527.833" y="363.528" width="30.5" height="4" rx="1" fill="#E5E7EB"/>
<rect x="572.333" y="363.528" width="30.5" height="4" rx="1" fill="#E5E7EB"/>
<rect x="616.833" y="363.528" width="30.5" height="4" rx="1" fill="#E5E7EB"/>
<rect x="483.333" y="375.528" width="30.5" height="4" rx="1" fill="#D1D5DB"/>
<rect x="527.833" y="375.528" width="30.5" height="4" rx="1" fill="#E5E7EB"/>
<rect x="572.333" y="375.528" width="30.5" height="4" rx="1" fill="#E5E7EB"/>
<rect x="616.833" y="375.528" width="30.5" height="4" rx="1" fill="#E5E7EB"/>
<rect x="483.333" y="387.528" width="30.5" height="4" rx="1" fill="#D1D5DB"/>
<rect x="527.833" y="387.528" width="30.5" height="4" rx="1" fill="#E5E7EB"/>
<rect x="572.333" y="387.528" width="30.5" height="4" rx="1" fill="#E5E7EB"/>
<rect x="616.833" y="387.528" width="30.5" height="4" rx="1" fill="#E5E7EB"/>
<rect x="483.333" y="399.528" width="30.5" height="4" rx="1" fill="#D1D5DB"/>
<rect x="527.833" y="399.528" width="30.5" height="4" rx="1" fill="#E5E7EB"/>
<rect x="572.333" y="399.528" width="30.5" height="4" rx="1" fill="#E5E7EB"/>
<rect x="616.833" y="399.528" width="30.5" height="4" rx="1" fill="#E5E7EB"/>
<rect x="732.667" y="320.528" width="239.333" height="92.6746" rx="4" fill="white"/>
<rect x="742.667" y="330.528" width="40" height="4" rx="2" fill="#9CA3AF"/>
<rect x="958" y="330.528" width="4" height="4" rx="2" fill="#D1D5DB"/>
<rect x="742.667" y="348.528" width="113" height="5" rx="2.5" fill="#E5E7EB"/>
<rect x="742.667" y="358.528" width="92" height="5" rx="2.5" fill="#E5E7EB"/>
<rect x="742.667" y="368.528" width="109" height="5" rx="2.5" fill="#E5E7EB"/>
<rect x="742.667" y="378.528" width="64" height="5" rx="2.5" fill="#E5E7EB"/>
<rect x="742.667" y="398.366" width="4" height="4" rx="2" fill="#9CA3AF"/>
<rect x="746.667" y="398.366" width="4" height="4" rx="2" fill="#9CA3AF"/>
<rect x="750.667" y="398.366" width="4" height="4" rx="2" fill="#9CA3AF"/>
<rect x="932.482" y="397.528" width="29.5174" height="5.67462" rx="2" fill="#E5E7EB"/>
<g clip-path="url(#clip1_2881_4057)">
<rect x="214" y="433.528" width="495" height="251" rx="4" fill="white"/>
<g clip-path="url(#clip2_2881_4057)">
<rect x="230" y="449.528" width="73" height="7" rx="2" fill="#9CA3AF"/>
<rect x="230" y="460.528" width="39" height="5" rx="2" fill="#D1D5DB"/>
</g>
<g opacity="0.3">
<path fill-rule="evenodd" clip-rule="evenodd" d="M214 496.121C214 496.121 248.347 561.74 284.714 561.74C319.061 561.74 319.061 533.902 355.429 533.902C389.776 533.902 389.776 579.637 426.143 579.637C460.49 579.637 460.49 490.155 496.857 490.155C531.204 490.155 531.204 627.36 567.571 627.36C601.918 627.36 601.918 571.683 638.286 571.683C672.633 571.683 709 619.406 709 619.406V684.528H214V496.121Z" fill="#C2C4C7"/>
<path fill-rule="evenodd" clip-rule="evenodd" d="M214 496.121C214 496.121 248.347 561.74 284.714 561.74C319.061 561.74 319.061 533.902 355.429 533.902C389.776 533.902 389.776 579.637 426.143 579.637C460.49 579.637 460.49 490.155 496.857 490.155C531.204 490.155 531.204 627.36 567.571 627.36C601.918 627.36 601.918 571.683 638.286 571.683C672.633 571.683 709 619.406 709 619.406V684.528H214V496.121Z" fill="url(#paint0_linear_2881_4057)"/>
</g>
<path fill-rule="evenodd" clip-rule="evenodd" d="M496.858 487.528C513.269 487.528 520.472 503.518 533.283 552.658L535.859 562.558C547.654 607.295 555.473 624.115 567.572 624.115C579.423 624.115 586.116 618.193 597.473 600.642L599.276 597.827C612.918 576.44 621.348 568.688 638.286 568.688C640.257 568.688 642.252 568.83 644.268 569.107C658.76 571.1 673.83 579.901 688.933 593.303C694.883 598.581 700.429 604.227 705.431 609.873C706.744 611.355 707.676 612.757 708.765 614.062V615.8V617.566V622.748L704.652 618.228C703.347 616.631 701.834 614.848 700.132 612.928C695.269 607.438 689.877 601.95 684.114 596.836C669.907 584.23 655.869 576.031 643.173 574.285C641.513 574.057 639.883 573.942 638.286 573.942C625.603 573.942 618.433 579.868 607.164 596.992L602.165 604.731C590.264 622.821 582.426 629.368 567.572 629.368C549.966 629.368 542.186 612.352 528.896 561.399L525.752 549.347C514.803 508.201 507.564 492.782 496.858 492.782C484.198 492.782 476.675 503.51 464.62 533.551L461.564 541.203C449.324 571.425 441.757 581.86 426.144 581.86C410.434 581.86 401.976 576.19 389.696 560.936L384.179 553.933C373.597 540.776 367.027 536.331 355.429 536.331C341.866 536.331 334.722 539.356 323.123 548.251L320.827 550.038C307.7 560.327 299.737 564.044 284.715 564.044C267.307 564.044 249.974 551.308 232.988 530.185C227.169 522.949 221.808 515.211 217.022 507.473L215.104 504.32C214.8 503.812 214.504 503.312 214.216 502.821V498.174L214.313 490.331L216.999 495.068L218.51 497.81L220.104 500.575C220.95 502.015 221.866 503.537 222.85 505.128C227.534 512.701 232.78 520.272 238.452 527.326C254.298 547.031 270.302 558.791 284.715 558.791C297.093 558.791 303.701 555.947 314.812 547.416L317.045 545.677C330.675 534.994 339.192 531.078 355.429 531.078C370.456 531.078 378.379 536.793 390.814 552.543L392.789 555.074C405.302 571.188 412.476 576.607 426.144 576.607C437.334 576.607 444.284 566.894 455.38 539.552L459.192 530.025C471.926 498.607 480.068 487.528 496.858 487.528Z" fill="#D1D5DB"/>
</g>
<g clip-path="url(#clip3_2881_4057)">
<rect x="729" y="433.528" width="243" height="251" rx="4" fill="white"/>
<rect x="745" y="449.528" width="73" height="7" rx="2" fill="#9CA3AF"/>
<rect x="745" y="460.528" width="39" height="5" rx="2" fill="#D1D5DB"/>
<path d="M748 684.528C746.343 684.528 745 683.185 745 681.528V490.528C745 488.871 746.343 487.528 748 487.528H756C757.657 487.528 759 488.871 759 490.528V681.528C759 683.185 757.657 684.528 756 684.528H748Z" fill="#D1D5DB"/>
<path d="M767 684.528C765.343 684.528 764 683.185 764 681.528V549.528C764 547.871 765.343 546.528 767 546.528H775C776.657 546.528 778 547.871 778 549.528V681.528C778 683.185 776.657 684.528 775 684.528H767Z" fill="#E5E7EB"/>
<path d="M793 684.528C791.343 684.528 790 683.185 790 681.528V600.528C790 598.871 791.343 597.528 793 597.528H801C802.657 597.528 804 598.871 804 600.528V681.528C804 683.185 802.657 684.528 801 684.528H793Z" fill="#D1D5DB"/>
<path d="M812 684.528C810.343 684.528 809 683.185 809 681.528V528.528C809 526.871 810.343 525.528 812 525.528H820C821.657 525.528 823 526.871 823 528.528V681.528C823 683.185 821.657 684.528 820 684.528H812Z" fill="#E5E7EB"/>
<path d="M838 684.528C836.343 684.528 835 683.185 835 681.528V517.528C835 515.871 836.343 514.528 838 514.528H846C847.657 514.528 849 515.871 849 517.528V681.528C849 683.185 847.657 684.528 846 684.528H838Z" fill="#D1D5DB"/>
<path d="M857 684.528C855.343 684.528 854 683.185 854 681.528V496.528C854 494.871 855.343 493.528 857 493.528H865C866.657 493.528 868 494.871 868 496.528V681.528C868 683.185 866.657 684.528 865 684.528H857Z" fill="#E5E7EB"/>
<path d="M883 684.528C881.343 684.528 880 683.185 880 681.528V517.528C880 515.871 881.343 514.528 883 514.528H891C892.657 514.528 894 515.871 894 517.528V681.528C894 683.185 892.657 684.528 891 684.528H883Z" fill="#D1D5DB"/>
<path d="M902 684.528C900.343 684.528 899 683.185 899 681.528V602.528C899 600.871 900.343 599.528 902 599.528H910C911.657 599.528 913 600.871 913 602.528V681.528C913 683.185 911.657 684.528 910 684.528H902Z" fill="#E5E7EB"/>
<path d="M928 684.528C926.343 684.528 925 683.185 925 681.528V535.528C925 533.871 926.343 532.528 928 532.528H936C937.657 532.528 939 533.871 939 535.528V681.528C939 683.185 937.657 684.528 936 684.528H928Z" fill="#D1D5DB"/>
<path d="M947 684.528C945.343 684.528 944 683.185 944 681.528V571.528C944 569.871 945.343 568.528 947 568.528H955C956.657 568.528 958 569.871 958 571.528V681.528C958 683.185 956.657 684.528 955 684.528H947Z" fill="#E5E7EB"/>
</g>
</g>
<defs>
<filter id="filter0_dd_2881_4057" x="-3" y="-2" width="998" height="42" filterUnits="userSpaceOnUse" color-interpolation-filters="sRGB">
<feFlood flood-opacity="0" result="BackgroundImageFix"/>
<feColorMatrix in="SourceAlpha" type="matrix" values="0 0 0 0 0 0 0 0 0 0 0 0 0 0 0 0 0 0 127 0" result="hardAlpha"/>
<feOffset dy="1"/>
<feGaussianBlur stdDeviation="1.5"/>
<feColorMatrix type="matrix" values="0 0 0 0 0 0 0 0 0 0 0 0 0 0 0 0 0 0 0.1 0"/>
<feBlend mode="normal" in2="BackgroundImageFix" result="effect1_dropShadow_2881_4057"/>
<feColorMatrix in="SourceAlpha" type="matrix" values="0 0 0 0 0 0 0 0 0 0 0 0 0 0 0 0 0 0 127 0" result="hardAlpha"/>
<feOffset dy="1"/>
<feGaussianBlur stdDeviation="1"/>
<feColorMatrix type="matrix" values="0 0 0 0 0 0 0 0 0 0 0 0 0 0 0 0 0 0 0.06 0"/>
<feBlend mode="normal" in2="effect1_dropShadow_2881_4057" result="effect2_dropShadow_2881_4057"/>
<feBlend mode="normal" in="SourceGraphic" in2="effect2_dropShadow_2881_4057" result="shape"/>
</filter>
<linearGradient id="paint0_linear_2881_4057" x1="461.5" y1="490.155" x2="461.5" y2="684.528" gradientUnits="userSpaceOnUse">
<stop offset="0.046875" stop-color="white" stop-opacity="0"/>
<stop offset="1" stop-color="white"/>
</linearGradient>
<clipPath id="clip0_2881_4057">
<rect width="992" height="715" fill="white"/>
</clipPath>
<clipPath id="clip1_2881_4057">
<rect x="214" y="433.528" width="495" height="251" rx="4" fill="white"/>
</clipPath>
<clipPath id="clip2_2881_4057">
<rect width="495" height="16" fill="white" transform="translate(214 449.528)"/>
</clipPath>
<clipPath id="clip3_2881_4057">
<rect x="729" y="433.528" width="243" height="251" rx="4" fill="white"/>
</clipPath>
</defs>
</svg>
