<svg width="425" height="80" viewBox="0 0 425 80" fill="none" xmlns="http://www.w3.org/2000/svg">
<path d="M90 17.6172V32.2697L98.1103 24.3918H118.66V17.6172H90Z" fill="#154EF2"/>
<path d="M90 44.6507V62.2407H98.1103V43.2838H116.697V36.5093H98.1353L90 44.6507Z" fill="#0E131E"/>
<path d="M125.67 17.6172V62.2458H133.576V17.6172H125.67Z" fill="#0E131E"/>
<path d="M163.089 28.7705V48.1597C163.089 49.8596 162.735 51.2761 162.033 52.3994C161.325 53.5277 160.429 54.3727 159.338 54.9393C158.247 55.5059 157.116 55.7892 155.95 55.7892C154.057 55.7892 152.522 55.1629 151.362 53.9154C150.196 52.6678 149.613 50.9779 149.613 48.8606V28.7705H141.707V50.0833C141.707 52.7524 142.18 55.0337 143.127 56.9125C144.073 58.7963 145.389 60.2277 147.072 61.2069C148.751 62.186 150.694 62.6781 152.891 62.6781C155.412 62.6781 157.534 62.0817 159.258 60.8937C160.982 59.7009 162.227 58.17 162.984 56.2912H163.333V62.2407H171V28.7705H163.089Z" fill="#0E131E"/>
<path d="M208.892 45.2411C208.892 42.3036 208.483 39.7787 207.666 37.6514C206.854 35.5241 205.733 33.7646 204.313 32.3878C202.894 31.0061 201.26 29.9871 199.416 29.3211C197.578 28.6601 195.62 28.332 193.553 28.332C190.349 28.332 187.56 29.0627 185.188 30.519C182.817 31.9802 180.969 34.0181 179.654 36.6225C178.338 39.227 177.676 42.2539 177.676 45.6984C177.676 49.2024 178.333 52.2393 179.644 54.8239C180.954 57.3985 182.832 59.3916 185.268 60.7933C187.704 62.1949 190.608 62.8957 193.971 62.8957C196.572 62.8957 198.893 62.4981 200.916 61.7078C202.933 60.9175 204.602 59.7992 205.908 58.3478C207.208 56.9064 208.09 55.2066 208.558 53.2582L201.175 52.4332C200.826 53.3775 200.308 54.1678 199.626 54.809C198.943 55.4452 198.136 55.9273 197.204 56.2553C196.273 56.5834 195.232 56.7424 194.076 56.7424C192.362 56.7424 190.858 56.3796 189.577 55.644C188.297 54.9134 187.301 53.8547 186.583 52.463C185.896 51.126 185.537 49.5205 185.517 47.6567H208.887V45.2411H208.892ZM185.532 42.3484C185.612 41.0362 185.951 39.8234 186.553 38.6952C187.231 37.4377 188.182 36.4237 189.403 35.6434C190.623 34.863 192.043 34.4754 193.662 34.4754C195.177 34.4754 196.502 34.8183 197.653 35.4992C198.794 36.1802 199.685 37.1146 200.323 38.2975C200.966 39.4805 201.289 40.8274 201.304 42.3434H185.532V42.3484Z" fill="#0E131E"/>
<path d="M243.608 34.1076C242.651 32.2337 241.316 30.7973 239.587 29.8132C237.864 28.8241 235.836 28.332 233.525 28.332C231.024 28.332 228.916 28.8837 227.223 29.9871C225.529 31.0905 224.288 32.5767 223.521 34.4555H223.128V28.7694H215.57V62.2396H223.476V42.6316C223.476 41.0213 223.775 39.6445 224.383 38.5113C224.986 37.378 225.823 36.5082 226.889 35.9068C227.96 35.3054 229.186 35.0022 230.575 35.0022C232.608 35.0022 234.212 35.6384 235.368 36.9009C236.524 38.1633 237.102 39.9179 237.102 42.1495V62.2396H245.008V40.9268C245.033 38.2578 244.564 35.9863 243.608 34.1076Z" fill="#0E131E"/>
<path d="M269.109 55.749C268.89 55.8087 268.576 55.8733 268.162 55.9429C267.744 56.0174 267.291 56.0522 266.797 56.0522C266.14 56.0522 265.547 55.9528 265.009 55.749C264.471 55.5452 264.038 55.1625 263.709 54.6059C263.38 54.0492 263.216 53.239 263.216 52.1754V20.7529H255.314V53.4875C255.299 55.58 255.753 57.3246 256.674 58.7213C257.601 60.113 258.856 61.1418 260.446 61.8079C262.03 62.4639 263.818 62.7671 265.796 62.7075C266.917 62.6826 267.869 62.5783 268.646 62.4043C269.423 62.2303 270.026 62.0713 270.444 61.9271L269.109 55.749ZM250.547 28.7701V34.8687H269.831V28.7701H250.547Z" fill="#0E131E"/>
<path d="M304.442 49.4413C303.954 50.2913 303.336 51.007 302.589 51.5935C301.837 52.185 300.97 52.6273 299.989 52.9355C299.007 53.2387 297.921 53.3928 296.72 53.3928C294.598 53.3928 292.755 52.8858 291.206 51.8768C289.656 50.8678 288.456 49.3668 287.599 47.3687C286.747 45.3706 286.324 42.8855 286.324 39.9232C286.324 37.0801 286.742 34.6496 287.579 32.6466C288.416 30.6436 289.616 29.1077 291.186 28.049C292.75 26.9904 294.618 26.4585 296.785 26.4585C298.011 26.4585 299.127 26.6325 300.143 26.9705C301.154 27.3134 302.031 27.8005 302.773 28.4417C303.516 29.0779 304.109 29.8483 304.562 30.7479C305.01 31.6476 305.309 32.6565 305.459 33.7798H316.379C316.115 31.1108 315.442 28.73 314.351 26.6574C313.255 24.5798 311.84 22.8203 310.087 21.3938C308.343 19.9623 306.315 18.8738 304.014 18.1233C301.717 17.3728 299.211 17 296.501 17C292.526 17 288.939 17.8847 285.736 19.6542C282.527 21.4286 279.992 24.0231 278.114 27.4327C276.235 30.8523 275.299 35.0075 275.299 39.9182C275.299 44.8189 276.22 48.9741 278.069 52.3838C279.917 55.8034 282.443 58.3979 285.636 60.1723C288.834 61.9517 292.456 62.8414 296.501 62.8414C299.58 62.8414 302.305 62.3791 304.681 61.4497C307.063 60.5202 309.085 59.2677 310.744 57.6871C312.403 56.1115 313.713 54.362 314.665 52.4434C315.616 50.5299 316.189 48.5815 316.379 46.6033L305.459 46.5387C305.269 47.6272 304.93 48.5914 304.442 49.4413Z" fill="#154EF2"/>
<path d="M359.166 17.6172L347.808 45.2472H347.28L335.926 17.6172H322.535V62.2458H333.067V34.6803H333.435L344.181 61.9625H350.911L361.657 34.8295H362.031V62.2458H372.557V17.6172H359.166Z" fill="#154EF2"/>
<path d="M413.552 44.4613C412.954 43.0249 412.077 41.7525 410.922 40.6441C409.766 39.5407 408.336 38.5913 406.637 37.7911C404.944 36.9959 402.986 36.3547 400.774 35.8775L396.928 35.0028C395.907 34.789 394.99 34.5355 394.178 34.2423C393.361 33.954 392.668 33.616 392.096 33.2284C391.518 32.8456 391.084 32.3983 390.785 31.8913C390.486 31.3844 390.352 30.7979 390.382 30.1269C390.397 29.3167 390.636 28.591 391.099 27.9598C391.567 27.3286 392.265 26.8315 393.196 26.4687C394.128 26.1059 395.289 25.9269 396.694 25.9269C398.801 25.9269 400.435 26.3693 401.576 27.264C402.717 28.1586 403.359 29.4012 403.509 31.0017H413.861C413.831 28.2332 413.114 25.7878 411.699 23.6803C410.289 21.5779 408.301 19.9377 405.751 18.7697C403.195 17.6016 400.181 17.0151 396.714 17.0151C393.321 17.0151 390.302 17.5967 387.647 18.7548C385.001 19.9178 382.919 21.5382 381.425 23.6157C379.925 25.6933 379.183 28.1139 379.198 30.8724C379.183 34.2622 380.289 36.9412 382.521 38.9244C384.742 40.9026 387.796 42.3439 391.672 43.2287L396.35 44.3172C397.979 44.6949 399.324 45.1074 400.38 45.5498C401.436 45.9921 402.219 46.514 402.727 47.1155C403.235 47.7169 403.499 48.4425 403.514 49.2825C403.499 50.1821 403.215 50.9824 402.662 51.6782C402.109 52.3741 401.317 52.9158 400.291 53.3085C399.269 53.7012 398.024 53.9 396.564 53.9C394.98 53.9 393.585 53.6515 392.384 53.1594C391.184 52.6624 390.242 51.9367 389.555 50.9824C388.872 50.0231 388.489 48.8252 388.399 47.3838H378.047C378.087 50.873 378.884 53.7508 380.423 56.0322C381.968 58.3086 384.13 60.0135 386.909 61.1318C389.689 62.2501 392.952 62.8068 396.699 62.8068C400.425 62.8068 403.608 62.27 406.254 61.1964C408.894 60.1228 410.927 58.577 412.337 56.5541C413.751 54.5362 414.464 52.1156 414.479 49.2974C414.459 47.5131 414.15 45.8977 413.552 44.4613Z" fill="#154EF2"/>
<path d="M36.171 36.3545L24.5878 43.0105H24.5855L13 49.6689V62.9856L24.5855 69.644H24.5878V56.3273L36.171 49.6689H36.1733L47.7565 43.0105L36.171 36.3545Z" fill="#154EF2"/>
<path d="M58.4132 36.3545V49.6689V49.6712L46.8277 56.3296L35.2422 62.9856V62.988L46.8277 69.644L58.4132 62.988H58.4155L69.9987 56.3296V43.0129L58.4132 36.3545Z" fill="#154EF2"/>
<path d="M35.9381 23.1759H35.9404L47.4072 29.7651L58.8785 36.3542V23.1759L47.4072 16.5891V16.5868L35.9404 10H35.9381L24.4714 16.5868V16.5891L13 23.1759V36.3542L24.4714 29.7651L35.9381 23.1759Z" fill="#154EF2"/>
</svg>
