<?xml version="1.0" standalone="no"?>
<!DOCTYPE svg PUBLIC "-//W3C//DTD SVG 20010904//EN"
 "http://www.w3.org/TR/2001/REC-SVG-20010904/DTD/svg10.dtd">
<svg version="1.0" xmlns="http://www.w3.org/2000/svg"
 width="700.000000pt" height="700.000000pt" viewBox="0 0 700.000000 700.000000"
 preserveAspectRatio="xMidYMid meet">
<metadata>
Created by potrace 1.14, written by Peter Selinger 2001-2017
</metadata>
<g transform="translate(0.000000,700.000000) scale(0.100000,-0.100000)"
fill="#000000" stroke="none">
<path d="M2887 6235 c-32 -19 -60 -35 -61 -35 -2 0 -33 -17 -67 -38 -35 -21
-89 -52 -119 -69 -30 -17 -69 -39 -87 -49 -27 -16 -146 -86 -248 -144 -16 -10
-115 -67 -220 -127 -104 -61 -246 -142 -315 -182 -69 -39 -132 -75 -140 -81
-8 -5 -46 -27 -85 -49 -60 -34 -687 -396 -723 -418 -11 -7 -14 -120 -13 -613
0 -333 0 -611 0 -618 1 -10 13 -7 43 11 24 14 59 34 78 45 19 10 107 61 195
112 88 51 203 118 255 148 145 83 151 86 313 181 84 48 292 168 462 265 171
98 322 187 337 197 15 10 29 19 32 19 2 0 71 39 153 86 81 48 168 98 193 112
25 14 53 30 62 36 12 7 24 6 45 -4 29 -16 547 -313 573 -330 8 -5 42 -25 75
-43 33 -19 116 -67 185 -107 69 -40 150 -86 180 -103 30 -16 62 -36 71 -43 8
-8 18 -14 21 -14 4 0 73 -39 155 -87 81 -47 157 -91 168 -97 11 -6 171 -98
356 -205 l335 -194 0 -616 c0 -605 -2 -641 -30 -641 -3 0 -29 -14 -58 -31
-100 -60 -292 -169 -296 -169 -2 0 -16 -8 -30 -19 -26 -18 -57 -36 -152 -89
-25 -13 -49 -28 -55 -32 -5 -4 -30 -19 -55 -32 -25 -14 -164 -94 -309 -177
-144 -84 -284 -164 -310 -178 -25 -14 -50 -29 -56 -33 -5 -4 -27 -17 -48 -29
-21 -12 -107 -61 -190 -109 -84 -49 -241 -140 -349 -202 -109 -63 -198 -116
-198 -119 1 -5 530 -312 959 -557 l107 -61 279 163 c154 90 287 167 295 170
13 7 417 239 1035 597 105 60 210 121 235 135 25 13 50 28 55 32 6 4 30 19 55
32 25 14 77 43 115 66 l70 40 3 618 2 619 -22 14 c-13 8 -248 144 -523 303
-275 159 -507 296 -515 304 -13 13 -15 96 -15 627 l0 612 -140 83 c-77 45
-147 86 -155 89 -8 4 -46 26 -85 48 -38 23 -90 53 -115 67 -25 14 -61 34 -80
45 -56 33 -453 262 -600 348 -74 43 -241 139 -370 213 -129 74 -239 138 -245
142 -5 4 -41 24 -80 45 -38 21 -77 44 -86 51 -8 8 -19 14 -22 14 -4 0 -41 20
-81 45 -41 25 -78 45 -83 45 -4 0 -34 -16 -66 -35z"/>
<path d="M2598 3594 c-194 -112 -366 -212 -383 -222 -24 -15 -528 -306 -675
-389 -175 -100 -699 -404 -713 -415 -17 -12 -18 -47 -19 -624 0 -336 2 -616 6
-622 3 -6 19 -17 34 -25 15 -7 43 -23 62 -34 19 -11 96 -55 170 -98 74 -43
189 -109 255 -148 66 -38 136 -79 155 -90 19 -10 108 -62 198 -114 89 -51 169
-96 177 -99 13 -5 15 70 15 610 l0 616 53 30 c28 17 59 35 67 40 92 55 171
100 176 100 3 0 18 8 32 19 15 10 53 33 85 50 32 18 79 45 105 61 26 16 64 37
85 47 20 10 37 21 37 25 0 5 4 8 9 8 8 0 115 60 476 270 93 54 305 176 807
466 113 65 203 122 199 126 -4 5 -56 36 -116 71 -61 35 -202 117 -315 182
-113 65 -300 173 -417 240 l-212 122 -353 -203z"/>
</g>
</svg>
