<svg xmlns="http://www.w3.org/2000/svg" xmlns:xlink="http://www.w3.org/1999/xlink" version="1.1" width="256" height="256" viewBox="0 0 256 256" xml:space="preserve">

<defs>
</defs>
<g style="stroke: none; stroke-width: 0; stroke-dasharray: none; stroke-linecap: butt; stroke-linejoin: miter; stroke-miterlimit: 10; fill: none; fill-rule: nonzero; opacity: 1;" transform="translate(1.4065934065934016 1.4065934065934016) scale(2.81 2.81)" >
	<circle cx="45" cy="45" r="45" style="stroke: none; stroke-width: 1; stroke-dasharray: none; stroke-linecap: butt; stroke-linejoin: miter; stroke-miterlimit: 10; fill: rgb(32,196,203); fill-rule: nonzero; opacity: 1;" transform="  matrix(1 0 0 1 0 0) "/>
	<path d="M 41.961 77.885 C 25.44 77.885 12 64.444 12 47.924 c 0 -16.521 13.44 -29.961 29.961 -29.961 s 29.961 13.44 29.961 29.961 C 71.922 64.444 58.481 77.885 41.961 77.885 z M 41.961 22.962 C 28.197 22.962 17 34.16 17 47.924 s 11.197 24.961 24.961 24.961 s 24.961 -11.197 24.961 -24.961 S 55.725 22.962 41.961 22.962 z" style="stroke: none; stroke-width: 1; stroke-dasharray: none; stroke-linecap: butt; stroke-linejoin: miter; stroke-miterlimit: 10; fill: rgb(27,167,173); fill-rule: nonzero; opacity: 1;" transform=" matrix(1 0 0 1 0 0) " stroke-linecap="round" />
	<path d="M 41.961 77.885 c -8.055 0 -12.269 -15.072 -12.269 -29.961 c 0 -14.889 4.214 -29.961 12.269 -29.961 s 12.27 15.072 12.27 29.961 C 54.23 62.813 50.016 77.885 41.961 77.885 z M 41.961 22.962 c -2.467 0 -7.269 8.811 -7.269 24.961 c 0 16.15 4.802 24.961 7.269 24.961 s 7.27 -8.811 7.27 -24.961 C 49.23 31.773 44.428 22.962 41.961 22.962 z" style="stroke: none; stroke-width: 1; stroke-dasharray: none; stroke-linecap: butt; stroke-linejoin: miter; stroke-miterlimit: 10; fill: rgb(27,167,173); fill-rule: nonzero; opacity: 1;" transform=" matrix(1 0 0 1 0 0) " stroke-linecap="round" />
	<path d="M 41.961 60.192 C 27.072 60.192 12 55.979 12 47.924 c 0 -8.055 15.072 -12.27 29.961 -12.27 s 29.961 4.214 29.961 12.27 C 71.922 55.979 56.85 60.192 41.961 60.192 z M 41.961 40.654 c -16.15 0 -24.961 4.802 -24.961 7.27 c 0 2.467 8.811 7.269 24.961 7.269 s 24.961 -4.802 24.961 -7.269 C 66.922 45.457 58.111 40.654 41.961 40.654 z" style="stroke: none; stroke-width: 1; stroke-dasharray: none; stroke-linecap: butt; stroke-linejoin: miter; stroke-miterlimit: 10; fill: rgb(27,167,173); fill-rule: nonzero; opacity: 1;" transform=" matrix(1 0 0 1 0 0) " stroke-linecap="round" />
	<path d="M 45.039 74.807 c -16.521 0 -29.961 -13.44 -29.961 -29.961 c 0 -16.521 13.44 -29.961 29.961 -29.961 S 75 28.325 75 44.845 C 75 61.366 61.56 74.807 45.039 74.807 z M 45.039 19.884 c -13.764 0 -24.961 11.197 -24.961 24.961 c 0 13.764 11.197 24.961 24.961 24.961 S 70 58.609 70 44.845 C 70 31.082 58.803 19.884 45.039 19.884 z" style="stroke: none; stroke-width: 1; stroke-dasharray: none; stroke-linecap: butt; stroke-linejoin: miter; stroke-miterlimit: 10; fill: rgb(255,255,255); fill-rule: nonzero; opacity: 1;" transform=" matrix(1 0 0 1 0 0) " stroke-linecap="round" />
	<path d="M 45.039 74.807 c -8.055 0 -12.27 -15.072 -12.27 -29.961 c 0 -14.889 4.214 -29.961 12.27 -29.961 c 8.055 0 12.27 15.072 12.27 29.961 C 57.309 59.734 53.094 74.807 45.039 74.807 z M 45.039 19.884 c -2.467 0 -7.27 8.811 -7.27 24.961 c 0 16.151 4.802 24.961 7.27 24.961 c 2.468 0 7.27 -8.811 7.27 -24.961 C 52.309 28.695 47.507 19.884 45.039 19.884 z" style="stroke: none; stroke-width: 1; stroke-dasharray: none; stroke-linecap: butt; stroke-linejoin: miter; stroke-miterlimit: 10; fill: rgb(255,255,255); fill-rule: nonzero; opacity: 1;" transform=" matrix(1 0 0 1 0 0) " stroke-linecap="round" />
	<path d="M 45.039 57.114 c -14.889 0 -29.961 -4.214 -29.961 -12.269 c 0 -8.055 15.072 -12.269 29.961 -12.269 S 75 36.791 75 44.845 C 75 52.9 59.928 57.114 45.039 57.114 z M 45.039 37.576 c -16.15 0 -24.961 4.802 -24.961 7.269 s 8.811 7.269 24.961 7.269 S 70 47.313 70 44.845 S 61.189 37.576 45.039 37.576 z" style="stroke: none; stroke-width: 1; stroke-dasharray: none; stroke-linecap: butt; stroke-linejoin: miter; stroke-miterlimit: 10; fill: rgb(255,255,255); fill-rule: nonzero; opacity: 1;" transform=" matrix(1 0 0 1 0 0) " stroke-linecap="round" />
</g>
</svg>

